<svg width="773" height="230" viewBox="0 0 773 230" fill="none" xmlns="http://www.w3.org/2000/svg">
<path d="M635.819 218.816L633.713 229.288C632.276 229.107 630.121 228.084 627.247 226.22C626.177 225.556 625.551 224.67 625.367 223.555C625.184 222.443 625.309 220.772 625.745 218.546L658.423 57.1083C660.293 57.5909 662.364 58.5534 664.638 59.9984C665.907 60.8403 666.625 61.774 666.793 62.7968C666.961 63.8197 666.877 65.2044 666.541 66.9511L635.819 218.816Z" fill="white"/>
<path d="M772.918 76.4504C773.18 83.5447 772.787 88.3336 771.738 90.8173C770.686 93.3009 758.035 105.008 733.778 125.937C709.524 146.869 695.591 157.687 691.98 158.398C688.37 159.106 685.811 156.032 684.3 149.174L681.348 135.872L755.492 82.8365C712.233 52.9173 689.028 35.7415 685.876 31.3092C682.725 26.8743 682.562 20.3413 685.383 11.7075L689.521 0L772.918 76.4504Z" fill="white"/>
<path d="M0.0786395 82.0496C-0.183566 74.9527 0.209753 70.1637 1.2612 67.68C2.31002 65.1964 14.964 53.4915 39.218 32.5601C63.4746 11.6313 77.4055 0.810269 81.0161 0.0995303C84.6267 -0.608586 87.1858 2.46516 88.6961 9.3234L91.6512 22.6281L17.5074 75.6634C60.766 105.58 83.9712 122.756 87.1203 127.191C90.272 131.626 90.4372 138.159 87.6132 146.79L83.4782 158.497L0.0786395 82.0496Z" fill="white"/>
<path fill-rule="evenodd" clip-rule="evenodd" d="M609.661 95.5459C609.661 117.571 586.38 135.935 557.66 135.935C528.944 135.935 505.663 117.841 505.663 95.5459C505.663 81.95 513.634 28.0362 513.634 28.0362C513.634 28.0362 526.387 39.6755 531.807 50.1163C539.424 44.7189 548.25 41.2858 557.66 41.2858C567.003 41.2858 575.768 44.6664 583.346 49.9983C588.803 39.5864 601.459 28.0362 601.459 28.0362C601.459 28.0362 609.661 81.9448 609.661 95.5459Z" fill="#FF931D"/>
<path fill-rule="evenodd" clip-rule="evenodd" d="M183.038 72.2069C185.919 73.7202 188.017 75.8681 189.336 78.6534C191.142 78.3597 192.739 77.8351 194.129 77.0824C195.524 76.3219 198.075 74.4283 201.785 71.4018C207.986 66.7124 213.186 64.3678 217.386 64.3678C221.828 64.3678 225.635 65.9938 228.811 69.2433C231.983 72.4875 233.57 76.5291 233.57 81.3626C233.57 86.0519 232.251 90.2403 229.616 93.9303C226.978 97.6152 222.95 99.4563 217.531 99.4563C215.433 99.4563 213.123 98.9921 210.606 98.0637C208.094 97.1352 204.617 94.8666 200.175 91.2526C198.125 89.4456 196.415 88.1395 195.049 87.337C193.68 86.5292 191.777 85.9286 189.336 85.5379C187.773 88.6641 185.723 90.715 183.184 91.6906C183.428 93.1566 183.853 94.6594 184.461 96.2015C185.075 97.7358 186.554 99.9205 188.898 102.753C192.558 107.246 194.902 110.589 195.928 112.787C196.953 114.985 197.464 117.5 197.464 120.333C197.464 125.069 195.744 128.854 192.299 131.686C188.858 134.519 184.624 135.935 179.595 135.935C174.128 135.935 169.856 134.372 166.778 131.248C163.703 128.122 162.166 124.387 162.166 120.039C162.166 117.159 162.811 114.487 164.101 112.024C165.399 109.553 167.806 106.17 171.32 101.874C174.248 98.4544 175.911 95.1577 176.299 91.9843C173.37 90.2743 171.223 88.0766 169.856 85.391C166.634 85.8788 163.068 87.7356 159.164 90.9589C155.063 94.232 151.84 96.4428 149.496 97.5916C147.152 98.7377 144.394 99.3094 141.221 99.3094C136.436 99.3094 132.613 97.6991 129.755 94.4759C126.902 91.2526 125.476 87.1744 125.476 82.2412C125.476 77.4076 126.949 73.2691 129.902 69.8308C132.857 66.3846 136.729 64.6615 141.512 64.6615C146.347 64.6615 151.937 67.1766 158.285 72.2069C160.871 74.2578 162.874 75.7213 164.29 76.6025C165.706 77.4811 167.609 78.1157 170.001 78.5065C171.417 75.7711 173.467 73.7202 176.155 72.3538C175.567 69.0309 173.223 64.735 169.122 59.4608C165.656 54.9184 163.582 51.8079 162.898 50.1241C162.213 48.4378 161.872 46.2741 161.872 43.6383C161.872 39.2428 163.422 35.5448 166.519 32.5445C169.623 29.539 173.931 28.0362 179.448 28.0362C184.967 28.0362 189.273 29.5258 192.372 32.5026C195.474 35.4819 197.026 39.1457 197.026 43.4915C197.026 46.1272 196.538 48.6188 195.56 50.9634C194.585 53.3081 192.508 56.4815 189.336 60.4863C185.528 65.4195 183.428 69.3246 183.038 72.2069Z" fill="#4628B3"/>
<path fill-rule="evenodd" clip-rule="evenodd" d="M293.911 135.935H307.462C330.418 132.643 348.114 113.07 348.114 89.1886V28.1961C348.114 28.1961 342.356 26.5963 333.087 33.5201C323.805 40.4492 321.012 48.5269 321.012 48.5269C321.012 48.5269 317.856 41.3435 312.758 36.0693C306.825 29.9297 300.686 28.1961 300.686 28.1961C300.686 28.1961 296.024 29.0747 289.249 35.4189C282.474 41.7893 280.36 48.5269 280.36 48.5269C280.36 48.5269 278.666 40.7193 269.355 33.7247C260.034 26.7458 253.259 28.1961 253.259 28.1961V89.1886C253.259 113.07 270.955 132.643 293.911 135.935Z" fill="#3DA8F4"/>
<path fill-rule="evenodd" clip-rule="evenodd" d="M367.971 91.6749C367.924 95.4987 369.536 99.4537 371.403 101.088C373.27 102.955 375.373 103.655 377.94 102.955C379.809 102.485 383.868 99.9966 386.577 99.4537C388.2 99.1285 390.122 99.2701 391.2 100.073C392.251 100.857 393.038 102.239 393.268 105.276L393.759 125.662C393.759 128.699 394.328 129.423 399.362 131.733C402.265 133.066 406.478 134.647 409.921 135.235C414.449 136.011 415.996 136.333 417.653 133.679C418.941 131.621 419.059 125.738 417.155 121.694C416.602 120.521 415.055 117.959 415.055 115.625C415.288 113.288 416.219 111.421 418.322 109.554C420.656 107.686 423.692 106.75 427.89 106.75C431.86 106.75 435.127 106.986 437.463 108.386C440.027 109.554 440.966 111.654 440.966 114.222C440.966 117.025 438.863 119.826 434.427 122.627C432.093 124.028 430.696 125.662 430.696 127.765C430.46 129.399 431.081 131.673 433.26 133.837C434.492 135.061 436.527 135.935 439.333 135.935C445.397 135.471 452.726 134.225 456.945 132.667C459.863 131.592 460.915 129.399 460.681 124.728V103.849C460.681 102.215 460.527 101.098 461.714 100.23C462.719 99.493 466.66 99.7186 467.942 99.9441C469.735 100.259 473.097 101.835 475.63 102.68C482.814 105.079 484.736 96.1439 484.969 92.8787C485.203 89.6082 484.5 86.8073 483.336 84.7039C481.936 82.6032 479.833 81.2027 477.032 80.7358C474.229 80.269 471.447 81.4334 467.947 84.237C466.547 85.4015 464.96 86.0178 463.482 86.0178C462.506 86.0178 460.7 85.1812 460.7 82.8366C460.7 78.5066 460.7 66.0752 460.7 61.1629C460.7 57.8348 459.066 54.6273 454.863 54.3912H438.863C436.983 54.3624 435.242 54.3414 433.79 53.1769C432.972 52.5213 432.602 51.4644 432.793 50.2868C432.924 49.4921 433.963 48.1493 435.363 47.2157C440.497 43.9478 443.064 40.6774 443.064 37.1761C443.064 33.9083 441.071 31.2411 438.399 29.8826C435.677 28.4978 431.178 27.871 427.89 28.0729C423.823 28.3221 420.105 28.8597 417.027 31.0601C414.452 32.8986 412.952 35.7756 412.952 38.5793C412.952 41.3803 415.084 45.3588 416.922 48.1493C417.302 48.7237 417.955 50.0901 417.74 51.4775C417.609 52.3167 417.037 53.4917 414.738 54.1526C413.521 54.5014 402.959 54.3912 399.26 54.3912C396.129 54.3912 393.656 56.5366 393.656 60.7722C393.656 64.874 393.656 79.6081 393.656 79.6081C393.656 82.8759 393.591 85.1025 392.256 85.6769C390.864 86.2801 388.911 86.1437 387.277 84.9766C382.84 81.7088 380.129 79.8494 376.734 79.7681C373.876 79.6999 368.11 80.5601 367.971 91.6749Z" fill="#ED247B"/>
<path d="M297.836 71.9184C296.315 71.9184 295.015 72.0154 293.935 72.2069C293.796 75.118 293.725 82.2674 293.725 93.6576C293.725 98.436 293.984 101.177 294.506 101.88C295.025 102.585 296.835 102.937 299.936 102.937C303.557 102.937 306.261 101.872 308.052 99.7421C309.843 97.6125 310.737 93.6471 310.737 87.8458C310.737 81.8924 309.693 77.7486 307.601 75.417C305.511 73.0855 302.257 71.9184 297.836 71.9184ZM296.756 67.6985C304.816 67.6985 310.388 69.0912 313.469 71.8764C316.547 74.6591 318.089 79.2408 318.089 85.6218C318.089 92.7711 316.529 98.1476 313.409 101.751C310.288 105.355 305.136 107.156 297.957 107.156L283.674 107.185C283.412 106.53 283.284 105.913 283.284 105.334C283.284 104.948 283.389 104.665 283.598 104.481C283.808 104.298 284.154 104.209 284.634 104.209H286.855C286.994 101.51 287.065 94.6306 287.065 83.5682C287.065 77.6515 286.994 73.3556 286.855 70.6752H283.674C283.412 70.0196 283.284 69.4137 283.284 68.8551C283.284 68.4512 283.389 68.1549 283.598 67.9739C283.808 67.7903 284.154 67.6985 284.634 67.6985H296.756Z" fill="white"/>
<path d="M549.086 67.6985C550.046 71.0503 551.389 75.3095 553.109 80.4761C554.829 85.6401 556.169 89.8547 557.128 93.1226C558.088 96.3878 558.639 98.0217 558.778 98.0217C558.919 98.0217 560.259 93.8674 562.8 85.5615C565.341 77.2555 567.04 71.3021 567.9 67.6985H580.05C580.291 68.2755 580.412 68.8342 580.412 69.3744C580.412 69.857 580.312 70.1927 580.111 70.3868C579.911 70.5782 579.563 70.6752 579.062 70.6752H577.082C577.001 74.2211 577.061 80.0224 577.26 88.0766C577.462 96.1334 577.662 101.499 577.861 104.18H580.771C581.031 104.757 581.162 105.315 581.162 105.856C581.162 106.335 581.062 106.674 580.86 106.868C580.661 107.059 580.302 107.156 579.78 107.156H568.02C567.761 106.501 567.63 105.895 567.63 105.334C567.63 104.93 567.734 104.636 567.944 104.452C568.154 104.269 568.5 104.18 568.98 104.18H570.75C570.91 100.825 570.839 90.631 570.54 73.5943C568.98 79.3772 567.179 85.2651 565.139 91.2579C563.099 97.2506 561.748 100.796 561.088 101.895C560.429 102.994 559.36 103.542 557.878 103.542C555.757 103.542 554.572 103.466 554.323 103.312C554.074 103.157 552.734 99.7894 550.303 93.2091C547.872 86.6263 545.735 80.0408 543.897 73.45C543.837 90.5838 543.876 100.825 544.015 104.18H546.808C547.046 104.757 547.167 105.315 547.167 105.856C547.167 106.335 547.067 106.674 546.868 106.868C546.666 107.059 546.317 107.156 545.817 107.156H534.775C534.534 106.501 534.416 105.895 534.416 105.334C534.416 104.93 534.521 104.636 534.731 104.452C534.94 104.269 535.287 104.18 535.766 104.18H537.956C538.176 101.499 538.381 96.1334 538.572 88.0766C538.761 80.0224 538.837 74.2211 538.795 70.6752H535.766C535.525 70.0196 535.405 69.4137 535.405 68.8551C535.405 68.4486 535.509 68.1549 535.719 67.9739C535.932 67.7903 536.275 67.6985 536.755 67.6985H549.086Z" fill="white"/>
</svg>
