<svg width="801" height="238" viewBox="0 0 801 238" fill="none" xmlns="http://www.w3.org/2000/svg">
<path d="M658.535 226.58L656.355 237.426C654.866 237.239 652.634 236.18 649.657 234.246C648.549 233.562 647.9 232.641 647.71 231.49C647.52 230.335 647.651 228.606 648.101 226.3L681.948 59.1341C683.884 59.6327 686.029 60.6299 688.384 62.1257C689.698 62.9983 690.442 63.9646 690.616 65.0242C690.787 66.0836 690.703 67.5173 690.355 69.3249L658.535 226.58Z" fill="#340057"/>
<path d="M800.533 79.1621C800.804 86.5089 800.397 91.4692 799.311 94.0383C798.222 96.6101 785.118 108.733 759.995 130.407C734.874 152.079 720.443 163.284 716.703 164.017C712.964 164.753 710.313 161.57 708.749 154.466L705.691 140.692L782.481 85.7743C737.68 54.7952 713.646 37.0096 710.381 32.4178C707.117 27.826 706.949 21.0609 709.871 12.1223L714.153 0.000106812L800.533 79.1621Z" fill="#340057"/>
<path d="M0.0814491 84.9593C-0.190124 77.6125 0.217247 72.6533 1.30626 70.082C2.39255 67.5105 15.4987 55.3883 40.6192 33.7151C65.7424 12.0419 80.1711 0.838172 83.9107 0.103294C87.6502 -0.631311 90.3008 2.55234 91.865 9.65425L94.9257 23.4295L18.1329 78.3471C62.9371 109.325 86.9713 127.11 90.2329 131.703C93.4972 136.295 93.6683 143.06 90.7435 152L86.4607 164.121L0.0814491 84.9593Z" fill="#340057"/>
<path fill-rule="evenodd" clip-rule="evenodd" d="M631.443 98.9348C631.443 121.741 607.33 140.76 577.585 140.76C547.842 140.76 523.729 122.024 523.729 98.9348C523.729 84.8575 531.985 29.0288 531.985 29.0288C531.985 29.0288 545.194 41.0826 550.807 51.895C558.694 46.3041 567.838 42.7509 577.585 42.7509C587.261 42.7509 596.339 46.2517 604.188 51.7709C609.839 40.9905 622.945 29.0288 622.945 29.0288C622.945 29.0288 631.443 84.8515 631.443 98.9348Z" fill="#FF931D"/>
<path fill-rule="evenodd" clip-rule="evenodd" d="M189.577 74.7677C192.562 76.3352 194.734 78.5603 196.1 81.4427C197.971 81.1391 199.625 80.5971 201.065 79.816C202.509 79.0295 205.152 77.0685 208.995 73.9335C215.417 69.0788 220.803 66.6515 225.15 66.6515C229.754 66.6515 233.697 68.3344 236.986 71.7C240.272 75.0599 241.915 79.243 241.915 84.2492C241.915 89.1038 240.549 93.4408 237.819 97.2619C235.087 101.077 230.916 102.984 225.303 102.984C223.13 102.984 220.737 102.503 218.13 101.545C215.529 100.583 211.928 98.2314 207.327 94.4891C205.203 92.618 203.433 91.2655 202.018 90.4353C200.6 89.5981 198.629 88.9773 196.1 88.5729C194.482 91.8087 192.358 93.9324 189.729 94.9453C189.982 96.4607 190.422 98.0168 191.052 99.6137C191.687 101.202 193.219 103.465 195.644 106.398C199.438 111.05 201.866 114.515 202.928 116.791C203.99 119.066 204.519 121.668 204.519 124.601C204.519 129.508 202.735 133.427 199.169 136.36C195.606 139.293 191.22 140.76 186.011 140.76C180.349 140.76 175.922 139.141 172.737 135.904C169.551 132.667 167.96 128.8 167.96 124.3C167.96 121.315 168.628 118.548 169.964 115.998C171.308 113.442 173.799 109.939 177.441 105.488C180.474 101.949 182.193 98.5355 182.598 95.2468C179.564 93.4789 177.34 91.2031 175.922 88.4211C172.587 88.9268 168.894 90.8484 164.85 94.1849C160.603 97.5742 157.265 99.8635 154.837 101.056C152.41 102.24 149.553 102.832 146.267 102.832C141.31 102.832 137.351 101.164 134.391 97.8267C131.436 94.4891 129.959 90.2667 129.959 85.1595C129.959 80.1533 131.485 75.869 134.543 72.3067C137.603 68.7388 141.615 66.9548 146.568 66.9548C151.576 66.9548 157.366 69.5592 163.938 74.7677C166.618 76.8914 168.693 78.4087 170.16 79.3188C171.626 80.2291 173.598 80.8865 176.074 81.2909C177.541 78.4592 179.665 76.3353 182.448 74.9193C181.84 71.4809 179.412 67.0309 175.165 61.5695C171.575 56.8667 169.426 53.6442 168.718 51.9026C168.009 50.155 167.656 47.9162 167.656 45.1855C167.656 40.6342 169.261 36.805 172.468 33.698C175.683 30.5852 180.145 29.0291 185.859 29.0291C191.573 29.0291 196.035 30.5714 199.245 33.6559C202.458 36.7407 204.066 40.5332 204.066 45.0337C204.066 47.7644 203.56 50.3433 202.547 52.7706C201.537 55.1979 199.386 58.4847 196.1 62.6314C192.157 67.7386 189.982 71.7842 189.577 74.7677Z" fill="#4628B3"/>
<path fill-rule="evenodd" clip-rule="evenodd" d="M304.412 140.76H318.447C342.223 137.349 360.551 117.081 360.551 92.3518V29.1945C360.551 29.1945 354.588 27.5382 344.988 34.7099C335.371 41.8824 332.482 50.2471 332.482 50.2471C332.482 50.2471 329.212 42.809 323.933 37.3485C317.787 30.9904 311.429 29.1945 311.429 29.1945C311.429 29.1945 306.601 30.1064 299.583 36.6755C292.566 43.2709 290.377 50.2471 290.377 50.2471C290.377 50.2471 288.623 42.1626 278.979 34.9206C269.322 27.6924 262.307 29.1945 262.307 29.1945V92.3518C262.307 117.081 280.636 137.349 304.412 140.76Z" fill="#3DA8F4"/>
<path fill-rule="evenodd" clip-rule="evenodd" d="M381.118 94.9263C381.069 98.8859 382.739 102.981 384.673 104.673C386.606 106.609 388.784 107.332 391.443 106.609C393.379 106.123 397.583 103.546 400.388 102.981C402.069 102.644 404.06 102.791 405.176 103.622C406.263 104.434 407.08 105.868 407.319 109.013L407.827 130.122C407.827 133.267 408.416 134.014 413.63 136.406C416.637 137.786 421.001 139.424 424.564 140.035C429.257 140.836 430.859 141.173 432.575 138.424C433.909 136.292 434.031 130.201 432.059 126.013C431.486 124.797 429.884 122.143 429.884 119.726C430.126 117.309 431.09 115.376 433.268 113.439C435.685 111.506 438.83 110.539 443.178 110.539C447.289 110.539 450.673 110.781 453.093 112.231C455.749 113.439 456.721 115.618 456.721 118.276C456.721 121.177 454.543 124.077 449.948 126.98C447.531 128.43 446.083 130.122 446.083 132.298C445.839 133.989 446.483 136.344 448.739 138.584C450.016 139.853 452.123 140.76 455.029 140.76C461.311 140.276 468.901 138.986 473.271 137.376C476.29 136.26 477.382 133.989 477.141 129.153V107.533C477.141 105.841 476.98 104.687 478.21 103.785C479.251 103.022 483.332 103.258 484.658 103.489C486.518 103.815 490 105.447 492.623 106.324C500.064 108.806 502.055 99.5567 502.296 96.1729C502.538 92.7864 501.81 89.8857 500.604 87.7093C499.154 85.5335 496.976 84.0824 494.076 83.5996C491.173 83.1167 488.291 84.322 484.663 87.224C483.216 88.4325 481.573 89.0699 480.041 89.0699C479.031 89.0699 477.16 88.2041 477.16 85.776C477.16 81.2915 477.16 68.4186 477.16 63.3313C477.16 59.8858 475.468 56.5637 471.114 56.3211H454.543C452.596 56.2894 450.792 56.2679 449.288 55.0637C448.441 54.3851 448.058 53.2896 448.256 52.0716C448.392 51.2471 449.467 49.8582 450.915 48.8901C456.235 45.5073 458.893 42.1208 458.893 38.4943C458.893 35.1099 456.827 32.3499 454.062 30.9426C451.243 29.5087 446.583 28.8586 443.178 29.0671C438.965 29.3251 435.115 29.8821 431.926 32.1606C429.259 34.0657 427.706 37.0446 427.706 39.9474C427.706 42.8473 429.914 46.9687 431.818 49.8582C432.209 50.4513 432.888 51.8652 432.662 53.3029C432.529 54.1735 431.937 55.3894 429.555 56.0726C428.295 56.4336 417.354 56.3211 413.524 56.3211C410.282 56.3211 407.721 58.5412 407.721 62.9274C407.721 67.1762 407.721 82.4318 407.721 82.4318C407.721 85.8159 407.653 88.1213 406.271 88.7174C404.829 89.3401 402.805 89.1994 401.114 87.9909C396.519 84.6077 393.71 82.6817 390.194 82.5975C387.233 82.5263 381.262 83.4168 381.118 94.9263Z" fill="#ED247B"/>
<path d="M308.477 74.4701C306.902 74.4701 305.555 74.5698 304.436 74.7694C304.292 77.7825 304.219 85.1858 304.219 96.9794C304.219 101.927 304.488 104.765 305.028 105.496C305.566 106.224 307.44 106.588 310.653 106.588C314.4 106.588 317.203 105.485 319.058 103.28C320.913 101.075 321.839 96.9686 321.839 90.9627C321.839 84.7967 320.758 80.5063 318.591 78.0918C316.426 75.6772 313.056 74.4701 308.477 74.4701ZM307.358 70.0999C315.707 70.0999 321.478 71.5417 324.668 74.425C327.857 77.3086 329.454 82.0529 329.454 88.6579C329.454 96.0615 327.838 101.629 324.606 105.36C321.374 109.092 316.038 110.957 308.6 110.957L293.81 110.987C293.538 110.308 293.405 109.67 293.405 109.073C293.405 108.673 293.514 108.377 293.731 108.19C293.948 108 294.307 107.905 294.804 107.905H297.104C297.248 105.11 297.321 97.987 297.321 86.5328C297.321 80.4067 297.248 75.9567 297.104 73.1828H293.81C293.538 72.5044 293.405 71.8757 293.405 71.2973C293.405 70.878 293.514 70.5738 293.731 70.3843C293.948 70.1947 294.307 70.0999 294.804 70.0999H307.358Z" fill="white"/>
<path d="M568.704 70.0996C569.698 73.572 571.089 77.9821 572.87 83.3299C574.652 88.678 576.039 93.0443 577.033 96.4254C578.027 99.8065 578.598 101.498 578.742 101.498C578.888 101.498 580.276 97.1994 582.907 88.5981C585.539 79.9974 587.299 73.8313 588.19 70.0996H600.774C601.024 70.6985 601.149 71.2772 601.149 71.8358C601.149 72.3347 601.046 72.6839 600.837 72.8835C600.63 73.0832 600.266 73.1828 599.75 73.1828H597.7C597.616 76.8545 597.678 82.8609 597.885 91.2031C598.091 99.5431 598.3 105.102 598.507 107.875H601.521C601.79 108.472 601.926 109.051 601.926 109.61C601.926 110.11 601.823 110.458 601.613 110.659C601.407 110.857 601.035 110.957 600.495 110.957H588.314C588.046 110.278 587.91 109.651 587.91 109.073C587.91 108.652 588.018 108.347 588.236 108.16C588.453 107.97 588.811 107.875 589.308 107.875H591.142C591.307 104.402 591.234 93.8455 590.924 76.206C589.308 82.1925 587.443 88.2888 585.33 94.4945C583.217 100.7 581.818 104.372 581.134 105.51C580.452 106.647 579.344 107.215 577.81 107.215C575.613 107.215 574.385 107.136 574.127 106.976C573.869 106.816 572.482 103.329 569.964 96.515C567.447 89.7005 565.234 82.881 563.33 76.0563C563.267 93.7966 563.308 104.402 563.452 107.875H566.344C566.591 108.472 566.716 109.051 566.716 109.61C566.716 110.11 566.613 110.458 566.404 110.659C566.198 110.857 565.836 110.957 565.318 110.957H553.882C553.632 110.278 553.51 109.651 553.51 109.073C553.51 108.652 553.618 108.347 553.836 108.16C554.053 107.97 554.409 107.875 554.908 107.875H557.176C557.404 105.102 557.616 99.5431 557.811 91.2031C558.01 82.8609 558.088 76.8545 558.045 73.1828H554.908C554.658 72.5044 554.533 71.8757 554.533 71.297C554.533 70.878 554.642 70.5738 554.859 70.3843C555.077 70.1947 555.435 70.0996 555.932 70.0996H568.704Z" fill="white"/>
</svg>
